# xmcd CD database file
#
# Track frame offsets:
#	150
#	19572
#	37444
#	54729
#	68284
#	86466
#	102988
#	124667
#	143244
#	156720
#	180684
#
# Disc length: 2618 seconds
#
# Revision: 1
# Processed by: cddbd v1.5.1PL0 Copyright (c) Steve Scherf et al.
# Submitted via: CDex 1.51
#
DISCID=970a380b
DTITLE=22-20's - 22-20's
DYEAR=2005
DGENRE=Garage Rock
TTITLE0=Devil In Me
TTITLE1=Such A Fool
TTITLE2=Baby Brings Bad News
TTITLE3=22 Days
TTITLE4=Friends
TTITLE5=Why Don't You Do It For Me?
TTITLE6=Shoot Your Gun
TTITLE7=The Things That Lovers Do
TTITLE8=I'm The One
TTITLE9=Hold On
TTITLE10=Baby, You're Not The One
EXTD=YEAR: 2005
EXTT0=
EXTT1=
EXTT2=
EXTT3=
EXTT4=
EXTT5=
EXTT6=
EXTT7=
EXTT8=
EXTT9=
EXTT10=
PLAYORDER=
